<?xml version="1.0" encoding="utf-8"?>
<!-- Generator: Adobe Illustrator 15.0.0, SVG Export Plug-In . SVG Version: 6.00 Build 0)  -->
<!DOCTYPE svg PUBLIC "-//W3C//DTD SVG 1.1//EN" "http://www.w3.org/Graphics/SVG/1.1/DTD/svg11.dtd">
<svg version="1.1" xmlns="http://www.w3.org/2000/svg" xmlns:xlink="http://www.w3.org/1999/xlink" x="0px" y="0px" width="50px"
	 height="200px" viewBox="281.198 296 50 200" enable-background="new 281.198 296 50 200" xml:space="preserve">
<g id="Layer_2_1_">
</g>
<g id="Layer_1">
	<g id="Layer_2">
		<g>
			<g>
				<path fill="#414042" d="M331.198,441.958c0,2.195-1.797,3.992-3.992,3.992H285.29c-2.196,0-3.992-1.797-3.992-3.992v-41.916
					c0-2.195,1.796-3.992,3.992-3.992h41.916c2.195,0,3.992,1.797,3.992,3.992V441.958z"/>
			</g>
		</g>
		<g>
			<g>
				<path fill="#414042" d="M331.098,491.858c0,2.195-1.796,3.991-3.991,3.991H285.19c-2.195,0-3.992-1.796-3.992-3.991v-41.917
					c0-2.195,1.796-3.991,3.992-3.991h41.917c2.195,0,3.991,1.796,3.991,3.991V491.858z"/>
			</g>
		</g>
		<g>
			<g>
				<path fill="#FFFFFF" d="M331.098,342.058c0,2.195-1.796,3.992-3.991,3.992H285.19c-2.195,0-3.992-1.796-3.992-3.992v-41.916
					c0-2.196,1.796-3.992,3.992-3.992h41.917c2.195,0,3.991,1.796,3.991,3.992V342.058z"/>
			</g>
		</g>
		<g>
			<path fill="#1E1E1E" d="M331.098,392.058c0,2.195-1.796,3.992-3.991,3.992H285.19c-2.195,0-3.992-1.796-3.992-3.992v-41.917
				c0-2.195,1.796-3.992,3.992-3.992h41.917c2.195,0,3.991,1.796,3.991,3.992V392.058z"/>
		</g>
	</g>
	<path fill="#FFFFFF" d="M312.336,359.744L312.336,359.744c-0.3-0.3-0.499-0.3-0.799-0.2c0,0-3.992,0.499-5.688,0.499h-0.1
		c-1.697,0-5.789-0.599-5.789-0.599c-0.299-0.1-0.599,0-0.798,0.3l-0.1,0.199c-0.1,0.2-0.1,0.399-0.1,0.699
		c0.1,0.2,0.2,0.399,0.399,0.499c0.698,0.299,3.293,1.198,3.992,1.397c0.1,0,0.399,0.1,0.399,0.599c0,0.599-0.2,3.094-0.499,4.292
		c-0.299,1.197-0.798,2.694-0.798,2.694c-0.1,0.399,0.1,0.898,0.499,0.998l0.499,0.2c0.2,0.1,0.399,0.1,0.599,0
		c0.2-0.1,0.299-0.299,0.399-0.499l1.397-4.292l1.298,4.391c0.1,0.2,0.199,0.399,0.398,0.499c0.101,0.1,0.2,0.1,0.3,0.1
		s0.199,0,0.3-0.1l0.498-0.2c0.399-0.1,0.6-0.499,0.499-0.898c0,0-0.398-1.597-0.698-2.894c-0.199-0.799-0.299-1.996-0.299-2.895
		c0-0.599-0.101-1.098-0.101-1.497c0-0.2,0.101-0.399,0.399-0.499c0.1,0,3.692-1.298,3.692-1.298c0.3-0.1,0.399-0.299,0.499-0.599
		C312.535,360.143,312.535,359.943,312.336,359.744z"/>
	<circle fill="#FFFFFF" cx="305.849" cy="357.248" r="1.697"/>
	<path fill="#333333" d="M312.336,309.943L312.336,309.943c-0.3-0.3-0.499-0.3-0.799-0.2c0,0-3.992,0.499-5.688,0.499h-0.1
		c-1.697,0-5.789-0.599-5.789-0.599c-0.299-0.1-0.599,0-0.798,0.3l-0.1,0.199c-0.1,0.2-0.1,0.399-0.1,0.699
		c0.1,0.2,0.2,0.399,0.399,0.499c0.698,0.299,3.293,1.198,3.992,1.397c0.1,0,0.399,0.1,0.399,0.599c0,0.599-0.2,3.094-0.499,4.292
		c-0.299,1.197-0.798,2.694-0.798,2.694c-0.1,0.399,0.1,0.898,0.499,0.998l0.499,0.2c0.2,0.1,0.399,0.1,0.599,0
		c0.2-0.1,0.299-0.299,0.399-0.499l1.397-4.292l1.298,4.391c0.1,0.2,0.199,0.399,0.398,0.499c0.101,0.1,0.2,0.1,0.3,0.1
		s0.199,0,0.3-0.1l0.498-0.2c0.399-0.1,0.6-0.499,0.499-0.898c0,0-0.398-1.597-0.698-2.894c-0.199-0.798-0.299-1.996-0.299-2.895
		c0-0.599-0.101-1.098-0.101-1.497c0-0.2,0.101-0.399,0.399-0.499c0.1,0,3.692-1.298,3.692-1.298c0.3-0.1,0.399-0.299,0.499-0.599
		C312.535,310.442,312.535,310.143,312.336,309.943z"/>
	<circle fill="#333333" cx="305.849" cy="307.448" r="1.697"/>
	<polygon fill="none" stroke="#000000" stroke-width="5" stroke-miterlimit="10" points="298.058,314.528 290.494,311.143 
		298.058,307.758 313.187,307.758 320.751,311.143 313.187,314.528 	"/>
	<path fill="#FFFFFF" d="M312.436,409.743L312.436,409.743c-0.3-0.3-0.499-0.3-0.799-0.199c0,0-3.991,0.499-5.688,0.499h-0.1
		c-1.697,0-5.789-0.6-5.789-0.6c-0.299-0.1-0.599,0-0.798,0.3l-0.1,0.2c-0.1,0.199-0.1,0.398-0.1,0.698
		c0.1,0.199,0.2,0.399,0.399,0.499c0.699,0.3,3.293,1.197,3.992,1.397c0.1,0,0.399,0.1,0.399,0.599c0,0.599-0.199,3.094-0.499,4.291
		c-0.299,1.197-0.798,2.695-0.798,2.695c-0.1,0.398,0.1,0.897,0.499,0.997l0.499,0.2c0.2,0.1,0.399,0.1,0.599,0
		c0.2-0.1,0.3-0.3,0.399-0.499l1.397-4.292l1.297,4.392c0.1,0.199,0.199,0.399,0.399,0.499c0.1,0.1,0.199,0.1,0.299,0.1
		s0.2,0,0.3-0.1l0.499-0.199c0.398-0.101,0.599-0.5,0.499-0.898c0,0-0.399-1.597-0.699-2.895c-0.199-0.798-0.299-1.996-0.299-2.894
		c0-0.6-0.1-1.099-0.1-1.497c0-0.2,0.1-0.399,0.398-0.499c0.1,0,3.692-1.298,3.692-1.298c0.3-0.1,0.399-0.3,0.5-0.599
		C312.735,410.143,312.635,409.943,312.436,409.743z"/>
	<circle fill="#FFFFFF" cx="306.048" cy="407.249" r="1.697"/>
	<path fill="#FFFFFF" d="M312.336,459.843L312.336,459.843c-0.3-0.299-0.499-0.299-0.799-0.199c0,0-3.992,0.499-5.688,0.499h-0.1
		c-1.697,0-5.789-0.599-5.789-0.599c-0.299-0.101-0.599,0-0.798,0.299l-0.1,0.2c-0.1,0.199-0.1,0.398-0.1,0.698
		c0.1,0.199,0.2,0.399,0.399,0.499c0.698,0.3,3.293,1.197,3.992,1.397c0.1,0,0.399,0.1,0.399,0.599c0,0.599-0.2,3.094-0.499,4.291
		s-0.798,2.695-0.798,2.695c-0.1,0.398,0.1,0.897,0.499,0.997l0.499,0.2c0.2,0.1,0.399,0.1,0.599,0s0.299-0.3,0.399-0.499
		l1.397-4.292l1.298,4.392c0.1,0.199,0.199,0.399,0.398,0.499c0.101,0.1,0.2,0.1,0.3,0.1s0.199,0,0.3-0.1l0.498-0.199
		c0.399-0.101,0.6-0.499,0.499-0.898c0,0-0.398-1.597-0.698-2.895c-0.199-0.798-0.299-1.996-0.299-2.894
		c0-0.6-0.101-1.099-0.101-1.497c0-0.2,0.101-0.399,0.399-0.499c0.1,0,3.692-1.298,3.692-1.298c0.3-0.1,0.399-0.3,0.499-0.599
		C312.535,460.342,312.535,460.043,312.336,459.843z"/>
	<circle fill="#FFFFFF" cx="305.849" cy="457.348" r="1.697"/>
	<polygon fill="none" stroke="#FFFFFF" stroke-width="5" stroke-miterlimit="10" points="299.595,464.118 293.292,460.733 
		299.595,457.348 312.202,457.348 318.506,460.733 312.202,464.118 	"/>
	<polygon fill="none" stroke="#000000" stroke-width="5" stroke-miterlimit="10" points="298.058,317.914 290.494,314.528 
		298.058,311.143 313.187,311.143 320.751,314.528 313.187,317.914 	"/>
	<polygon fill="none" stroke="#FFFFFF" stroke-width="5" stroke-miterlimit="10" points="301.171,414.019 296.443,410.634 
		301.171,407.248 310.626,407.248 315.354,410.634 310.626,414.019 	"/>
	<polygon fill="none" stroke="#FFFFFF" stroke-width="5" stroke-miterlimit="10" points="301.071,418.849 296.343,415.463 
		301.071,412.078 310.526,412.078 315.255,415.463 310.526,418.849 	"/>
	<polygon fill="none" stroke="#FFFFFF" stroke-width="5" stroke-miterlimit="10" points="299.495,468.948 293.191,465.563 
		299.495,462.178 312.103,462.178 318.406,465.563 312.103,468.948 	"/>
	<g>
		<path d="M294.968,326.452c0.212-0.035,0.489-0.065,0.842-0.065c0.434,0,0.751,0.101,0.953,0.282
			c0.182,0.162,0.298,0.409,0.298,0.711c0,0.308-0.091,0.55-0.262,0.727c-0.237,0.247-0.61,0.373-1.039,0.373
			c-0.131,0-0.252-0.005-0.354-0.03v1.362h-0.438V326.452z M295.407,328.092c0.096,0.025,0.217,0.035,0.363,0.035
			c0.53,0,0.853-0.262,0.853-0.721c0-0.454-0.323-0.671-0.802-0.671c-0.191,0-0.338,0.015-0.414,0.035V328.092z"/>
		<path d="M299.406,328.218h-1.316v1.226h1.473v0.368h-1.917v-3.4h1.841v0.369h-1.397v1.074h1.316V328.218z"/>
		<path d="M300.132,326.458c0.222-0.041,0.545-0.071,0.842-0.071c0.469,0,0.777,0.091,0.984,0.277
			c0.167,0.151,0.267,0.383,0.267,0.65c0,0.444-0.282,0.742-0.635,0.863v0.015c0.257,0.091,0.414,0.333,0.494,0.686
			c0.111,0.474,0.191,0.802,0.262,0.933h-0.454c-0.056-0.101-0.131-0.389-0.222-0.812c-0.101-0.469-0.288-0.646-0.686-0.661h-0.414
			v1.473h-0.439V326.458z M300.571,328.006h0.449c0.469,0,0.767-0.257,0.767-0.646c0-0.439-0.317-0.631-0.782-0.631
			c-0.211,0-0.358,0.015-0.434,0.036V328.006z"/>
		<path d="M302.79,329.277c0.197,0.126,0.479,0.222,0.782,0.222c0.449,0,0.711-0.237,0.711-0.58c0-0.313-0.182-0.5-0.641-0.671
			c-0.555-0.202-0.898-0.495-0.898-0.969c0-0.529,0.439-0.923,1.1-0.923c0.343,0,0.601,0.081,0.747,0.167l-0.121,0.358
			c-0.106-0.065-0.333-0.161-0.641-0.161c-0.464,0-0.641,0.277-0.641,0.509c0,0.318,0.207,0.474,0.676,0.656
			c0.575,0.222,0.863,0.5,0.863,0.999c0,0.524-0.383,0.984-1.186,0.984c-0.328,0-0.686-0.101-0.867-0.222L302.79,329.277z"/>
		<path d="M308.236,328.076c0,1.166-0.711,1.791-1.578,1.791c-0.903,0-1.529-0.701-1.529-1.73c0-1.079,0.666-1.786,1.574-1.786
			C307.637,326.351,308.236,327.063,308.236,328.076z M305.594,328.127c0,0.731,0.393,1.382,1.089,1.382
			c0.696,0,1.09-0.641,1.09-1.412c0-0.681-0.353-1.387-1.084-1.387C305.957,326.709,305.594,327.385,305.594,328.127z"/>
		<path d="M308.806,329.812v-3.4h0.484l1.084,1.72c0.248,0.398,0.449,0.757,0.605,1.104l0.016-0.005
			c-0.04-0.454-0.051-0.868-0.051-1.397v-1.423h0.414v3.4h-0.444l-1.079-1.725c-0.237-0.378-0.464-0.767-0.631-1.135l-0.015,0.005
			c0.024,0.429,0.03,0.837,0.03,1.402v1.453H308.806z"/>
		<path d="M312.674,328.742l-0.354,1.069h-0.454l1.161-3.4h0.524l1.16,3.4h-0.47l-0.362-1.069H312.674z M313.794,328.399
			l-0.339-0.979c-0.075-0.222-0.126-0.424-0.176-0.621h-0.011c-0.05,0.197-0.101,0.409-0.171,0.615l-0.333,0.984H313.794z"/>
		<path d="M315.205,326.412h0.444v3.032h1.452v0.368h-1.896V326.412z"/>
		<path d="M299.643,335.328c0.197,0.126,0.479,0.222,0.782,0.222c0.449,0,0.711-0.237,0.711-0.58c0-0.313-0.182-0.5-0.641-0.671
			c-0.555-0.202-0.897-0.494-0.897-0.968c0-0.53,0.438-0.923,1.099-0.923c0.343,0,0.601,0.081,0.747,0.167l-0.121,0.358
			c-0.106-0.065-0.333-0.162-0.641-0.162c-0.464,0-0.641,0.277-0.641,0.509c0,0.318,0.207,0.474,0.676,0.656
			c0.575,0.222,0.862,0.5,0.862,0.999c0,0.524-0.383,0.983-1.185,0.983c-0.328,0-0.686-0.101-0.868-0.222L299.643,335.328z"/>
		<path d="M302.185,332.504c0.212-0.036,0.489-0.066,0.842-0.066c0.434,0,0.751,0.101,0.953,0.283
			c0.182,0.161,0.298,0.409,0.298,0.711c0,0.308-0.091,0.55-0.262,0.727c-0.237,0.247-0.61,0.373-1.039,0.373
			c-0.131,0-0.252-0.005-0.353-0.03v1.362h-0.439V332.504z M302.624,334.143c0.096,0.025,0.217,0.035,0.363,0.035
			c0.53,0,0.853-0.262,0.853-0.721c0-0.454-0.323-0.671-0.802-0.671c-0.192,0-0.338,0.015-0.414,0.035V334.143z"/>
		<path d="M304.994,334.794l-0.354,1.069h-0.454l1.16-3.4h0.524l1.16,3.4h-0.469l-0.363-1.069H304.994z M306.113,334.451
			l-0.338-0.979c-0.076-0.222-0.126-0.424-0.177-0.621h-0.01c-0.051,0.197-0.101,0.409-0.171,0.616l-0.333,0.983H306.113z"/>
		<path d="M309.825,335.757c-0.156,0.081-0.484,0.161-0.898,0.161c-0.958,0-1.674-0.605-1.674-1.725
			c0-1.069,0.721-1.786,1.775-1.786c0.418,0,0.69,0.091,0.807,0.151l-0.11,0.358c-0.162-0.081-0.399-0.142-0.682-0.142
			c-0.797,0-1.326,0.51-1.326,1.402c0,0.837,0.479,1.367,1.301,1.367c0.272,0,0.545-0.056,0.722-0.141L309.825,335.757z"/>
		<path d="M312.135,334.269h-1.316v1.226h1.473v0.369h-1.917v-3.4h1.841v0.368h-1.396v1.074h1.316V334.269z"/>
		<path d="M298.624,341.38c0.197,0.126,0.479,0.222,0.782,0.222c0.449,0,0.711-0.237,0.711-0.58c0-0.313-0.182-0.5-0.641-0.671
			c-0.555-0.202-0.898-0.495-0.898-0.969c0-0.529,0.439-0.923,1.1-0.923c0.343,0,0.601,0.081,0.747,0.167l-0.121,0.358
			c-0.106-0.065-0.333-0.161-0.641-0.161c-0.464,0-0.64,0.277-0.64,0.509c0,0.318,0.207,0.474,0.676,0.656
			c0.575,0.222,0.862,0.5,0.862,0.999c0,0.524-0.383,0.984-1.186,0.984c-0.328,0-0.686-0.101-0.867-0.222L298.624,341.38z"/>
		<path d="M301.604,338.515v1.423h1.645v-1.423h0.444v3.4h-0.444v-1.594h-1.645v1.594h-0.444v-3.4H301.604z"/>
		<path d="M304.893,338.515v3.4h-0.444v-3.4H304.893z"/>
		<path d="M307.414,340.321h-1.316v1.226h1.474v0.368h-1.917v-3.4h1.841v0.369h-1.397v1.074h1.316V340.321z"/>
		<path d="M308.135,338.515h0.444v3.032h1.452v0.368h-1.896V338.515z"/>
		<path d="M310.521,338.565c0.268-0.045,0.585-0.076,0.933-0.076c0.631,0,1.08,0.151,1.377,0.424c0.308,0.277,0.484,0.67,0.484,1.22
			c0,0.555-0.177,1.009-0.489,1.322c-0.322,0.318-0.848,0.489-1.508,0.489c-0.318,0-0.575-0.015-0.797-0.041V338.565z
			 M310.959,341.572c0.111,0.015,0.272,0.02,0.443,0.02c0.943,0,1.448-0.525,1.448-1.443c0.005-0.802-0.449-1.311-1.377-1.311
			c-0.227,0-0.398,0.02-0.515,0.045V341.572z"/>
	</g>
	<g>
		<path fill="#FFFFFF" d="M294.718,376.629c0.212-0.035,0.49-0.065,0.842-0.065c0.434,0,0.752,0.101,0.954,0.282
			c0.182,0.162,0.297,0.409,0.297,0.711c0,0.308-0.091,0.55-0.262,0.726c-0.237,0.247-0.61,0.374-1.039,0.374
			c-0.131,0-0.252-0.005-0.353-0.03v1.362h-0.439V376.629z M295.157,378.269c0.096,0.025,0.217,0.035,0.363,0.035
			c0.529,0,0.853-0.262,0.853-0.721c0-0.454-0.323-0.671-0.802-0.671c-0.191,0-0.338,0.015-0.414,0.036V378.269z"/>
		<path fill="#FFFFFF" d="M299.157,378.395h-1.316v1.226h1.473v0.368h-1.917v-3.4h1.841v0.368h-1.397v1.075h1.316V378.395z"/>
		<path fill="#FFFFFF" d="M299.882,376.634c0.222-0.04,0.545-0.07,0.842-0.07c0.469,0,0.777,0.091,0.983,0.277
			c0.167,0.151,0.268,0.383,0.268,0.65c0,0.444-0.283,0.742-0.636,0.863v0.015c0.257,0.091,0.414,0.333,0.495,0.686
			c0.111,0.474,0.191,0.802,0.262,0.933h-0.454c-0.056-0.101-0.131-0.389-0.222-0.812c-0.101-0.469-0.288-0.646-0.686-0.661h-0.414
			v1.473h-0.439V376.634z M300.321,378.183h0.449c0.469,0,0.767-0.257,0.767-0.646c0-0.438-0.318-0.63-0.782-0.63
			c-0.212,0-0.358,0.015-0.434,0.035V378.183z"/>
		<path fill="#FFFFFF" d="M302.54,379.454c0.197,0.126,0.479,0.222,0.782,0.222c0.449,0,0.711-0.237,0.711-0.58
			c0-0.313-0.182-0.5-0.641-0.671c-0.555-0.202-0.898-0.495-0.898-0.969c0-0.53,0.439-0.923,1.1-0.923
			c0.343,0,0.6,0.081,0.747,0.167l-0.121,0.358c-0.106-0.065-0.333-0.162-0.641-0.162c-0.464,0-0.641,0.278-0.641,0.51
			c0,0.318,0.207,0.474,0.676,0.656c0.575,0.222,0.863,0.499,0.863,0.999c0,0.524-0.384,0.984-1.186,0.984
			c-0.328,0-0.686-0.101-0.868-0.222L302.54,379.454z"/>
		<path fill="#FFFFFF" d="M307.987,378.253c0,1.166-0.712,1.791-1.579,1.791c-0.903,0-1.528-0.701-1.528-1.73
			c0-1.079,0.666-1.786,1.574-1.786C307.387,376.528,307.987,377.24,307.987,378.253z M305.344,378.304
			c0,0.731,0.394,1.382,1.089,1.382c0.697,0,1.089-0.641,1.089-1.412c0-0.681-0.353-1.387-1.084-1.387
			S305.344,377.563,305.344,378.304z"/>
		<path fill="#FFFFFF" d="M308.557,379.989v-3.4h0.483l1.085,1.72c0.247,0.398,0.448,0.756,0.605,1.104l0.015-0.005
			c-0.04-0.454-0.051-0.868-0.051-1.397v-1.422h0.414v3.4h-0.444l-1.079-1.725c-0.236-0.378-0.464-0.767-0.63-1.135l-0.016,0.005
			c0.025,0.429,0.03,0.837,0.03,1.402v1.453H308.557z"/>
		<path fill="#FFFFFF" d="M312.424,378.919l-0.353,1.069h-0.454l1.16-3.4h0.524l1.16,3.4h-0.469l-0.363-1.069H312.424z
			 M313.544,378.576l-0.338-0.979c-0.076-0.222-0.126-0.423-0.177-0.62h-0.01c-0.051,0.197-0.102,0.408-0.172,0.615l-0.333,0.983
			H313.544z"/>
		<path fill="#FFFFFF" d="M314.955,376.589h0.444v3.032h1.452v0.368h-1.896V376.589z"/>
		<path fill="#FFFFFF" d="M299.393,385.505c0.197,0.126,0.479,0.222,0.782,0.222c0.449,0,0.711-0.237,0.711-0.58
			c0-0.313-0.182-0.5-0.641-0.671c-0.555-0.202-0.898-0.494-0.898-0.968c0-0.53,0.439-0.923,1.1-0.923
			c0.343,0,0.601,0.081,0.747,0.167l-0.121,0.358c-0.106-0.065-0.333-0.161-0.641-0.161c-0.464,0-0.641,0.277-0.641,0.509
			c0,0.318,0.207,0.474,0.676,0.656c0.575,0.222,0.863,0.5,0.863,0.999c0,0.524-0.383,0.983-1.186,0.983
			c-0.328,0-0.686-0.101-0.867-0.222L299.393,385.505z"/>
		<path fill="#FFFFFF" d="M301.935,382.681c0.211-0.036,0.489-0.066,0.842-0.066c0.434,0,0.752,0.101,0.954,0.283
			c0.182,0.161,0.298,0.408,0.298,0.711c0,0.308-0.091,0.55-0.263,0.727c-0.237,0.247-0.61,0.373-1.039,0.373
			c-0.131,0-0.252-0.005-0.353-0.03v1.362h-0.438V382.681z M302.374,384.32c0.096,0.025,0.217,0.035,0.363,0.035
			c0.53,0,0.853-0.262,0.853-0.721c0-0.454-0.323-0.671-0.802-0.671c-0.191,0-0.338,0.015-0.414,0.035V384.32z"/>
		<path fill="#FFFFFF" d="M304.744,384.971l-0.353,1.069h-0.454l1.16-3.399h0.525l1.16,3.399h-0.469l-0.363-1.069H304.744z
			 M305.864,384.628l-0.338-0.979c-0.075-0.222-0.126-0.424-0.176-0.621h-0.01c-0.05,0.197-0.101,0.409-0.171,0.616l-0.333,0.983
			H305.864z"/>
		<path fill="#FFFFFF" d="M309.575,385.935c-0.156,0.081-0.484,0.161-0.897,0.161c-0.959,0-1.675-0.605-1.675-1.725
			c0-1.069,0.721-1.786,1.775-1.786c0.419,0,0.691,0.091,0.808,0.151l-0.111,0.358c-0.161-0.081-0.398-0.141-0.681-0.141
			c-0.798,0-1.327,0.51-1.327,1.402c0,0.837,0.479,1.367,1.302,1.367c0.272,0,0.545-0.056,0.721-0.142L309.575,385.935z"/>
		<path fill="#FFFFFF" d="M311.885,384.446h-1.316v1.226h1.473v0.368h-1.917v-3.399h1.842v0.368h-1.397v1.074h1.316V384.446z"/>
		<path fill="#FFFFFF" d="M298.375,391.557c0.197,0.126,0.479,0.222,0.782,0.222c0.449,0,0.711-0.237,0.711-0.58
			c0-0.313-0.182-0.5-0.641-0.671c-0.555-0.202-0.898-0.495-0.898-0.969c0-0.53,0.439-0.923,1.1-0.923
			c0.343,0,0.6,0.081,0.747,0.167l-0.121,0.358c-0.106-0.065-0.333-0.162-0.641-0.162c-0.464,0-0.641,0.278-0.641,0.51
			c0,0.318,0.207,0.474,0.676,0.656c0.575,0.222,0.863,0.499,0.863,0.999c0,0.524-0.383,0.984-1.186,0.984
			c-0.328,0-0.686-0.101-0.868-0.222L298.375,391.557z"/>
		<path fill="#FFFFFF" d="M301.355,388.692v1.422H303v-1.422h0.444v3.4H303v-1.594h-1.645v1.594h-0.444v-3.4H301.355z"/>
		<path fill="#FFFFFF" d="M304.643,388.692v3.4h-0.444v-3.4H304.643z"/>
		<path fill="#FFFFFF" d="M307.164,390.498h-1.316v1.226h1.473v0.368h-1.917v-3.4h1.841v0.369h-1.397v1.074h1.316V390.498z"/>
		<path fill="#FFFFFF" d="M307.886,388.692h0.443v3.032h1.453v0.368h-1.896V388.692z"/>
		<path fill="#FFFFFF" d="M310.271,388.743c0.268-0.045,0.585-0.076,0.934-0.076c0.63,0,1.079,0.151,1.377,0.424
			c0.308,0.277,0.483,0.67,0.483,1.22c0,0.555-0.176,1.009-0.489,1.322c-0.322,0.318-0.847,0.489-1.508,0.489
			c-0.317,0-0.575-0.015-0.797-0.041V388.743z M310.709,391.749c0.111,0.015,0.272,0.021,0.444,0.021
			c0.943,0,1.447-0.525,1.447-1.443c0.005-0.802-0.449-1.312-1.377-1.312c-0.227,0-0.398,0.021-0.515,0.046V391.749z"/>
	</g>
	<g>
		<path fill="#FFFFFF" d="M294.718,426.807c0.212-0.035,0.49-0.065,0.842-0.065c0.434,0,0.752,0.101,0.954,0.282
			c0.182,0.161,0.297,0.408,0.297,0.711c0,0.308-0.091,0.55-0.262,0.727c-0.237,0.247-0.61,0.373-1.039,0.373
			c-0.131,0-0.252-0.005-0.353-0.03v1.362h-0.439V426.807z M295.157,428.446c0.096,0.024,0.217,0.035,0.363,0.035
			c0.529,0,0.853-0.263,0.853-0.722c0-0.454-0.323-0.671-0.802-0.671c-0.191,0-0.338,0.016-0.414,0.035V428.446z"/>
		<path fill="#FFFFFF" d="M299.157,428.572h-1.316v1.226h1.473v0.368h-1.917v-3.399h1.841v0.368h-1.397v1.074h1.316V428.572z"/>
		<path fill="#FFFFFF" d="M299.882,426.812c0.222-0.04,0.545-0.07,0.842-0.07c0.469,0,0.777,0.091,0.983,0.277
			c0.167,0.151,0.268,0.383,0.268,0.65c0,0.444-0.283,0.742-0.636,0.862v0.016c0.257,0.091,0.414,0.333,0.495,0.686
			c0.111,0.475,0.191,0.803,0.262,0.934h-0.454c-0.056-0.102-0.131-0.389-0.222-0.813c-0.101-0.469-0.288-0.646-0.686-0.66h-0.414
			v1.473h-0.439V426.812z M300.321,428.36h0.449c0.469,0,0.767-0.258,0.767-0.646c0-0.438-0.318-0.63-0.782-0.63
			c-0.212,0-0.358,0.016-0.434,0.035V428.36z"/>
		<path fill="#FFFFFF" d="M302.54,429.631c0.197,0.127,0.479,0.223,0.782,0.223c0.449,0,0.711-0.237,0.711-0.58
			c0-0.313-0.182-0.5-0.641-0.671c-0.555-0.202-0.898-0.495-0.898-0.969c0-0.529,0.439-0.923,1.1-0.923
			c0.343,0,0.6,0.08,0.747,0.166l-0.121,0.358c-0.106-0.065-0.333-0.161-0.641-0.161c-0.464,0-0.641,0.277-0.641,0.509
			c0,0.318,0.207,0.475,0.676,0.656c0.575,0.222,0.863,0.499,0.863,0.999c0,0.524-0.384,0.983-1.186,0.983
			c-0.328,0-0.686-0.102-0.868-0.223L302.54,429.631z"/>
		<path fill="#FFFFFF" d="M307.987,428.431c0,1.165-0.712,1.791-1.579,1.791c-0.903,0-1.528-0.701-1.528-1.73
			c0-1.079,0.666-1.785,1.574-1.785C307.387,426.706,307.987,427.417,307.987,428.431z M305.344,428.481
			c0,0.731,0.394,1.382,1.089,1.382c0.697,0,1.089-0.641,1.089-1.412c0-0.682-0.353-1.388-1.084-1.388
			S305.344,427.739,305.344,428.481z"/>
		<path fill="#FFFFFF" d="M308.557,430.166v-3.399h0.483l1.085,1.72c0.247,0.398,0.448,0.757,0.605,1.104l0.015-0.005
			c-0.04-0.454-0.051-0.868-0.051-1.397v-1.422h0.414v3.399h-0.444l-1.079-1.726c-0.236-0.378-0.464-0.767-0.63-1.135l-0.016,0.005
			c0.025,0.429,0.03,0.838,0.03,1.402v1.453H308.557z"/>
		<path fill="#FFFFFF" d="M312.424,429.097l-0.353,1.069h-0.454l1.16-3.399h0.524l1.16,3.399h-0.469l-0.363-1.069H312.424z
			 M313.544,428.754l-0.338-0.979c-0.076-0.223-0.126-0.424-0.177-0.621h-0.01c-0.051,0.197-0.102,0.409-0.172,0.615l-0.333,0.984
			H313.544z"/>
		<path fill="#FFFFFF" d="M314.955,426.767h0.444v3.031h1.452v0.368h-1.896V426.767z"/>
		<path fill="#FFFFFF" d="M299.393,435.683c0.197,0.126,0.479,0.222,0.782,0.222c0.449,0,0.711-0.236,0.711-0.58
			c0-0.313-0.182-0.499-0.641-0.671c-0.555-0.201-0.898-0.494-0.898-0.968c0-0.53,0.439-0.924,1.1-0.924
			c0.343,0,0.601,0.081,0.747,0.167l-0.121,0.358c-0.106-0.066-0.333-0.162-0.641-0.162c-0.464,0-0.641,0.278-0.641,0.51
			c0,0.317,0.207,0.475,0.676,0.656c0.575,0.222,0.863,0.499,0.863,0.998c0,0.524-0.383,0.984-1.186,0.984
			c-0.328,0-0.686-0.102-0.867-0.223L299.393,435.683z"/>
		<path fill="#FFFFFF" d="M301.935,432.858c0.211-0.036,0.489-0.066,0.842-0.066c0.434,0,0.752,0.102,0.954,0.283
			c0.182,0.161,0.298,0.408,0.298,0.711c0,0.308-0.091,0.55-0.263,0.727c-0.237,0.247-0.61,0.373-1.039,0.373
			c-0.131,0-0.252-0.005-0.353-0.03v1.362h-0.438V432.858z M302.374,434.497c0.096,0.025,0.217,0.035,0.363,0.035
			c0.53,0,0.853-0.262,0.853-0.721c0-0.454-0.323-0.671-0.802-0.671c-0.191,0-0.338,0.015-0.414,0.035V434.497z"/>
		<path fill="#FFFFFF" d="M304.744,435.148l-0.353,1.069h-0.454l1.16-3.4h0.525l1.16,3.4h-0.469l-0.363-1.069H304.744z
			 M305.864,434.805l-0.338-0.979c-0.075-0.222-0.126-0.423-0.176-0.62h-0.01c-0.05,0.197-0.101,0.408-0.171,0.615l-0.333,0.983
			H305.864z"/>
		<path fill="#FFFFFF" d="M309.575,436.111c-0.156,0.081-0.484,0.162-0.897,0.162c-0.959,0-1.675-0.605-1.675-1.726
			c0-1.069,0.721-1.786,1.775-1.786c0.419,0,0.691,0.092,0.808,0.151l-0.111,0.358c-0.161-0.08-0.398-0.141-0.681-0.141
			c-0.798,0-1.327,0.509-1.327,1.401c0,0.838,0.479,1.367,1.302,1.367c0.272,0,0.545-0.056,0.721-0.141L309.575,436.111z"/>
		<path fill="#FFFFFF" d="M311.885,434.623h-1.316v1.226h1.473v0.369h-1.917v-3.4h1.842v0.368h-1.397v1.075h1.316V434.623z"/>
		<path fill="#FFFFFF" d="M298.375,441.734c0.197,0.126,0.479,0.222,0.782,0.222c0.449,0,0.711-0.237,0.711-0.58
			c0-0.313-0.182-0.499-0.641-0.671c-0.555-0.202-0.898-0.494-0.898-0.968c0-0.53,0.439-0.924,1.1-0.924
			c0.343,0,0.6,0.081,0.747,0.167l-0.121,0.357c-0.106-0.065-0.333-0.161-0.641-0.161c-0.464,0-0.641,0.277-0.641,0.51
			c0,0.317,0.207,0.474,0.676,0.655c0.575,0.222,0.863,0.5,0.863,0.999c0,0.524-0.383,0.983-1.186,0.983
			c-0.328,0-0.686-0.101-0.868-0.222L298.375,441.734z"/>
		<path fill="#FFFFFF" d="M301.355,438.869v1.423H303v-1.423h0.444v3.399H303v-1.594h-1.645v1.594h-0.444v-3.399H301.355z"/>
		<path fill="#FFFFFF" d="M304.643,438.869v3.399h-0.444v-3.399H304.643z"/>
		<path fill="#FFFFFF" d="M307.164,440.675h-1.316v1.226h1.473v0.368h-1.917v-3.399h1.841v0.368h-1.397v1.074h1.316V440.675z"/>
		<path fill="#FFFFFF" d="M307.886,438.869h0.443v3.031h1.453v0.368h-1.896V438.869z"/>
		<path fill="#FFFFFF" d="M310.271,438.92c0.268-0.046,0.585-0.076,0.934-0.076c0.63,0,1.079,0.151,1.377,0.424
			c0.308,0.277,0.483,0.671,0.483,1.221c0,0.555-0.176,1.009-0.489,1.321c-0.322,0.318-0.847,0.489-1.508,0.489
			c-0.317,0-0.575-0.015-0.797-0.04V438.92z M310.709,441.926c0.111,0.015,0.272,0.021,0.444,0.021c0.943,0,1.447-0.525,1.447-1.443
			c0.005-0.802-0.449-1.311-1.377-1.311c-0.227,0-0.398,0.02-0.515,0.045V441.926z"/>
	</g>
	<g>
		<path fill="#FFFFFF" d="M294.718,476.228c0.212-0.035,0.49-0.065,0.842-0.065c0.434,0,0.752,0.101,0.954,0.282
			c0.182,0.161,0.297,0.408,0.297,0.711c0,0.308-0.091,0.55-0.262,0.727c-0.237,0.247-0.61,0.373-1.039,0.373
			c-0.131,0-0.252-0.005-0.353-0.03v1.362h-0.439V476.228z M295.157,477.866c0.096,0.025,0.217,0.035,0.363,0.035
			c0.529,0,0.853-0.262,0.853-0.721c0-0.454-0.323-0.671-0.802-0.671c-0.191,0-0.338,0.015-0.414,0.035V477.866z"/>
		<path fill="#FFFFFF" d="M299.157,477.993h-1.316v1.225h1.473v0.369h-1.917v-3.399h1.841v0.367h-1.397v1.075h1.316V477.993z"/>
		<path fill="#FFFFFF" d="M299.882,476.232c0.222-0.04,0.545-0.07,0.842-0.07c0.469,0,0.777,0.091,0.983,0.277
			c0.167,0.151,0.268,0.383,0.268,0.65c0,0.444-0.283,0.741-0.636,0.862v0.016c0.257,0.091,0.414,0.332,0.495,0.686
			c0.111,0.475,0.191,0.803,0.262,0.934h-0.454c-0.056-0.102-0.131-0.389-0.222-0.813c-0.101-0.469-0.288-0.646-0.686-0.661h-0.414
			v1.474h-0.439V476.232z M300.321,477.78h0.449c0.469,0,0.767-0.257,0.767-0.646c0-0.438-0.318-0.63-0.782-0.63
			c-0.212,0-0.358,0.015-0.434,0.035V477.78z"/>
		<path fill="#FFFFFF" d="M302.54,479.052c0.197,0.126,0.479,0.222,0.782,0.222c0.449,0,0.711-0.236,0.711-0.58
			c0-0.313-0.182-0.499-0.641-0.67c-0.555-0.202-0.898-0.495-0.898-0.969c0-0.53,0.439-0.923,1.1-0.923
			c0.343,0,0.6,0.08,0.747,0.166l-0.121,0.358c-0.106-0.065-0.333-0.162-0.641-0.162c-0.464,0-0.641,0.278-0.641,0.51
			c0,0.317,0.207,0.475,0.676,0.656c0.575,0.222,0.863,0.499,0.863,0.998c0,0.524-0.384,0.984-1.186,0.984
			c-0.328,0-0.686-0.102-0.868-0.223L302.54,479.052z"/>
		<path fill="#FFFFFF" d="M307.987,477.852c0,1.165-0.712,1.791-1.579,1.791c-0.903,0-1.528-0.701-1.528-1.73
			c0-1.079,0.666-1.785,1.574-1.785C307.387,476.127,307.987,476.838,307.987,477.852z M305.344,477.901
			c0,0.731,0.394,1.383,1.089,1.383c0.697,0,1.089-0.641,1.089-1.412c0-0.682-0.353-1.388-1.084-1.388
			S305.344,477.16,305.344,477.901z"/>
		<path fill="#FFFFFF" d="M308.557,479.587v-3.399h0.483l1.085,1.72c0.247,0.398,0.448,0.757,0.605,1.104l0.015-0.005
			c-0.04-0.454-0.051-0.868-0.051-1.397v-1.422h0.414v3.399h-0.444l-1.079-1.726c-0.236-0.378-0.464-0.767-0.63-1.135l-0.016,0.005
			c0.025,0.429,0.03,0.838,0.03,1.402v1.453H308.557z"/>
		<path fill="#FFFFFF" d="M312.424,478.518l-0.353,1.069h-0.454l1.16-3.399h0.524l1.16,3.399h-0.469l-0.363-1.069H312.424z
			 M313.544,478.174l-0.338-0.979c-0.076-0.222-0.126-0.423-0.177-0.62h-0.01c-0.051,0.197-0.102,0.408-0.172,0.615l-0.333,0.983
			H313.544z"/>
		<path fill="#FFFFFF" d="M314.955,476.188h0.444v3.03h1.452v0.369h-1.896V476.188z"/>
		<path fill="#FFFFFF" d="M299.393,485.104c0.197,0.126,0.479,0.222,0.782,0.222c0.449,0,0.711-0.237,0.711-0.58
			c0-0.313-0.182-0.499-0.641-0.671c-0.555-0.201-0.898-0.494-0.898-0.968c0-0.53,0.439-0.924,1.1-0.924
			c0.343,0,0.601,0.081,0.747,0.167l-0.121,0.357c-0.106-0.065-0.333-0.161-0.641-0.161c-0.464,0-0.641,0.277-0.641,0.51
			c0,0.317,0.207,0.475,0.676,0.655c0.575,0.223,0.863,0.5,0.863,0.999c0,0.524-0.383,0.983-1.186,0.983
			c-0.328,0-0.686-0.101-0.867-0.222L299.393,485.104z"/>
		<path fill="#FFFFFF" d="M301.935,482.279c0.211-0.036,0.489-0.066,0.842-0.066c0.434,0,0.752,0.102,0.954,0.283
			c0.182,0.161,0.298,0.408,0.298,0.711c0,0.308-0.091,0.55-0.263,0.727c-0.237,0.247-0.61,0.373-1.039,0.373
			c-0.131,0-0.252-0.005-0.353-0.03v1.361h-0.438V482.279z M302.374,483.918c0.096,0.025,0.217,0.035,0.363,0.035
			c0.53,0,0.853-0.262,0.853-0.721c0-0.454-0.323-0.671-0.802-0.671c-0.191,0-0.338,0.015-0.414,0.035V483.918z"/>
		<path fill="#FFFFFF" d="M304.744,484.569l-0.353,1.068h-0.454l1.16-3.399h0.525l1.16,3.399h-0.469l-0.363-1.068H304.744z
			 M305.864,484.226l-0.338-0.979c-0.075-0.222-0.126-0.424-0.176-0.62h-0.01c-0.05,0.196-0.101,0.408-0.171,0.615l-0.333,0.983
			H305.864z"/>
		<path fill="#FFFFFF" d="M309.575,485.532c-0.156,0.081-0.484,0.161-0.897,0.161c-0.959,0-1.675-0.605-1.675-1.725
			c0-1.069,0.721-1.786,1.775-1.786c0.419,0,0.691,0.091,0.808,0.151l-0.111,0.358c-0.161-0.08-0.398-0.141-0.681-0.141
			c-0.798,0-1.327,0.509-1.327,1.401c0,0.838,0.479,1.367,1.302,1.367c0.272,0,0.545-0.056,0.721-0.142L309.575,485.532z"/>
		<path fill="#FFFFFF" d="M311.885,484.044h-1.316v1.226h1.473v0.368h-1.917v-3.399h1.842v0.368h-1.397v1.074h1.316V484.044z"/>
		<path fill="#FFFFFF" d="M298.375,491.155c0.197,0.126,0.479,0.222,0.782,0.222c0.449,0,0.711-0.237,0.711-0.58
			c0-0.313-0.182-0.499-0.641-0.671c-0.555-0.202-0.898-0.494-0.898-0.969c0-0.529,0.439-0.923,1.1-0.923
			c0.343,0,0.6,0.081,0.747,0.166l-0.121,0.358c-0.106-0.065-0.333-0.161-0.641-0.161c-0.464,0-0.641,0.277-0.641,0.51
			c0,0.317,0.207,0.474,0.676,0.655c0.575,0.222,0.863,0.499,0.863,0.999c0,0.524-0.383,0.983-1.186,0.983
			c-0.328,0-0.686-0.101-0.868-0.222L298.375,491.155z"/>
		<path fill="#FFFFFF" d="M301.355,488.29v1.422H303v-1.422h0.444v3.399H303v-1.594h-1.645v1.594h-0.444v-3.399H301.355z"/>
		<path fill="#FFFFFF" d="M304.643,488.29v3.399h-0.444v-3.399H304.643z"/>
		<path fill="#FFFFFF" d="M307.164,490.096h-1.316v1.226h1.473v0.368h-1.917v-3.399h1.841v0.368h-1.397v1.074h1.316V490.096z"/>
		<path fill="#FFFFFF" d="M307.886,488.29h0.443v3.031h1.453v0.368h-1.896V488.29z"/>
		<path fill="#FFFFFF" d="M310.271,488.34c0.268-0.045,0.585-0.075,0.934-0.075c0.63,0,1.079,0.151,1.377,0.424
			c0.308,0.277,0.483,0.671,0.483,1.221c0,0.555-0.176,1.009-0.489,1.321c-0.322,0.317-0.847,0.489-1.508,0.489
			c-0.317,0-0.575-0.015-0.797-0.04V488.34z M310.709,491.347c0.111,0.015,0.272,0.021,0.444,0.021c0.943,0,1.447-0.525,1.447-1.443
			c0.005-0.802-0.449-1.312-1.377-1.312c-0.227,0-0.398,0.021-0.515,0.046V491.347z"/>
	</g>
</g>
</svg>
